<?xml version="1.0" encoding="utf-8"?>
<!-- Generator: Adobe Illustrator 19.2.1, SVG Export Plug-In . SVG Version: 6.00 Build 0)  -->
<svg version="1.1" id="Layer_1" xmlns="http://www.w3.org/2000/svg" xmlns:xlink="http://www.w3.org/1999/xlink" x="0px" y="0px"
	 viewBox="0 0 600 125.7" style="enable-background:new 0 0 600 125.7;" xml:space="preserve">
<style type="text/css">
	.st0{fill:#FFFFFF;}
</style>
<g>
	<path class="st0" d="M0,97L38.7,1.5h15.5L92.9,97H73.4L63.4,71.2H29.5L19.5,97H0z M46.5,28.4L36,54.9h20.9L46.5,28.4z"/>
	<path class="st0" d="M111.5,26.3v6.9c5-5.7,11.3-8.5,18.7-8.5c8.8,0,16,2.9,21.5,8.6c5.5,5.7,8.3,13.1,8.3,22.2V97h-17.3V56.6
		c0-4.7-1.4-8.4-4.2-11.3c-2.8-2.9-6.4-4.3-11-4.3c-4.5,0-8.3,1.5-11.4,4.6c-3.1,3-4.6,6.7-4.6,11.1V97H94.2V26.3H111.5z"/>
	<path class="st0" d="M186.7,100.2l2.5-7l-26.6-66.8h18.6l17.3,45.2l15.2-45.2h18.6l-29.4,80.3c-2.4,6.6-6,11.5-10.6,14.5
		c-4.7,3-10.9,4.6-18.6,4.6h-8.2v-16.3h8.2c3.6,0,6.4-0.7,8.4-2.1C184,106,185.5,103.6,186.7,100.2z"/>
	<path class="st0" d="M248.3,68.9c0,3.8,1.1,6.8,3.4,9c2.2,2.2,5.3,3.4,9.1,3.4c3.8,0,6.9-1,9.1-3c2.3-2,3.4-4.7,3.4-7.9
		c0-5.4-3.4-9.6-10.3-12.5l-14-5.9c-5.5-2.3-9.8-5.6-12.8-10c-3-4.3-4.5-9.4-4.5-15.1c0-7.6,2.8-13.9,8.4-19.1
		c5.6-5.2,12.6-7.7,20.8-7.7c8.6,0,15.7,2.6,21.2,7.9c5.5,5.3,8.3,12.1,8.3,20.5h-18.1c0-3.4-1-6.1-3.1-8.1c-2.1-2-4.8-3.1-8.3-3.1
		c-3.3,0-6,0.8-8.1,2.4c-2.1,1.6-3.1,3.7-3.1,6.1c0,4.5,3.3,8.2,10,11l13.4,5.7c5.8,2.5,10.3,6,13.5,10.7c3.2,4.6,4.8,9.9,4.8,15.8
		c0,8.4-2.9,15.5-8.7,21.2c-5.8,5.7-13.1,8.5-21.9,8.5c-8.8,0-16.1-2.8-21.9-8.4c-5.8-5.6-8.7-12.7-8.7-21.2v-1.3h18.1V68.9z"/>
	<path class="st0" d="M311,26.3v7.5c5-6,12.1-9.1,21.4-9.1c4.8,0,9.4,0.9,13.8,2.7c4.4,1.8,8.3,4.4,11.7,7.8c3.4,3.5,6,7.5,7.8,12
		c1.8,4.5,2.7,9.3,2.7,14.3s-0.9,9.8-2.7,14.3c-1.8,4.5-4.4,8.5-7.8,11.9c-3.4,3.4-7.3,6.1-11.7,7.9c-4.4,1.8-9,2.7-13.8,2.7
		c-9.3,0-16.4-3-21.4-9.1v34.6h-17.3V26.3H311z M351.3,61.7c0-6-1.9-10.9-5.7-14.8c-3.8-3.9-8.6-5.8-14.4-5.8
		c-5.8,0-10.6,1.9-14.4,5.8c-3.8,3.9-5.7,8.8-5.7,14.8c0,6,1.9,11,5.7,14.8c3.8,3.9,8.6,5.8,14.4,5.8c5.8,0,10.5-1.9,14.4-5.8
		C349.4,72.6,351.3,67.7,351.3,61.7z"/>
	<path class="st0" d="M428.4,26.3h17.3V97h-17.3v-7.5c-5,6-12.1,9.1-21.4,9.1c-4.8,0-9.4-0.9-13.8-2.7c-4.4-1.8-8.3-4.5-11.7-7.9
		c-3.4-3.4-6-7.4-7.8-11.9c-1.8-4.5-2.7-9.3-2.7-14.3s0.9-9.8,2.7-14.3c1.8-4.5,4.4-8.5,7.8-12c3.4-3.4,7.3-6,11.7-7.8
		c4.4-1.8,9-2.7,13.8-2.7c9.3,0,16.4,3,21.4,9.1V26.3z M408.3,41c-5.8,0-10.6,1.9-14.4,5.8c-3.8,3.9-5.7,8.8-5.7,14.8
		c0,6,1.9,11,5.7,14.8c3.8,3.9,8.6,5.8,14.4,5.8c5.8,0,10.5-1.9,14.4-5.8c3.8-3.9,5.7-8.8,5.7-14.8c0-6-1.9-10.9-5.7-14.8
		C418.8,42.9,414.1,41,408.3,41z"/>
	<path class="st0" d="M523.6,72.5c-2.4,8-6.8,14.3-13.2,19c-6.5,4.7-14.1,7.1-22.8,7.1c-5.1,0-10-0.9-14.6-2.7
		c-4.6-1.8-8.6-4.5-12.1-7.9c-3.4-3.4-6.1-7.4-7.9-11.9c-1.8-4.5-2.8-9.3-2.8-14.3s0.9-9.8,2.8-14.3c1.8-4.5,4.5-8.5,7.9-11.9
		c3.5-3.4,7.5-6.1,12.1-7.9c4.6-1.8,9.4-2.7,14.6-2.7c8.7,0,16.3,2.4,22.8,7.1c6.5,4.7,10.9,11,13.2,19H505
		c-3.5-6.6-9.3-9.8-17.4-9.8c-5.8,0-10.6,2-14.4,5.9c-3.8,3.9-5.7,8.8-5.7,14.8c0,6,1.9,10.9,5.7,14.8c3.8,3.9,8.6,5.9,14.4,5.9
		c3.9,0,7.4-0.9,10.4-2.6c3-1.7,5.4-4.1,7.1-7.3H523.6z"/>
	<path class="st0" d="M543.5,68.5c1.1,4.1,3.5,7.4,7,10c3.5,2.6,7.6,3.9,12.1,3.9c3.1,0,5.9-0.6,8.6-1.9c2.7-1.2,4.9-2.9,6.7-5.1
		h19.6c-2.9,7.2-7.5,12.9-13.7,17c-6.3,4.2-13.3,6.2-21.2,6.2c-5.1,0-9.9-0.9-14.5-2.7c-4.6-1.8-8.6-4.5-12.1-7.9
		c-3.5-3.4-6.2-7.4-8-11.9c-1.9-4.5-2.8-9.3-2.8-14.4s0.9-9.8,2.8-14.4c1.9-4.5,4.5-8.5,8-12c3.4-3.4,7.5-6,12.1-7.8
		c4.6-1.8,9.4-2.7,14.5-2.7c5.1,0,9.9,0.9,14.5,2.7c4.6,1.8,8.6,4.4,12.1,7.8c3.5,3.4,6.2,7.4,8,12c1.9,4.5,2.8,9.3,2.8,14.4
		c0,2.8-0.2,5.1-0.5,6.8H543.5z M581.3,53.5c-1.4-3.8-3.8-6.9-7.1-9.1c-3.4-2.3-7.2-3.4-11.6-3.4c-4.3,0-8.1,1.1-11.5,3.4
		c-3.4,2.3-5.8,5.3-7.2,9.1H581.3z"/>
</g>
</svg>
